<?xml version="1.0" encoding="utf-8"?>
<!-- Generator: Adobe Illustrator 19.0.0, SVG Export Plug-In . SVG Version: 6.00 Build 0)  -->
<svg version="1.1" id="Слой_1" xmlns="http://www.w3.org/2000/svg" xmlns:xlink="http://www.w3.org/1999/xlink" x="0px" y="0px"
	 viewBox="932.6 9.7 667.4 889.9" style="enable-background:new 932.6 9.7 667.4 889.9;" xml:space="preserve">
<style type="text/css">
	.st0{clip-path:url(#SVGID_2_);fill:url(#Module_x5F_horizontal_x5F_rect-6_1_);}
	.st1{clip-path:url(#SVGID_4_);fill:url(#Module_x5F_horizontal_x5F_rect-_1_);}
	.st2{clip-path:url(#SVGID_6_);fill:url(#Module_x5F_horizontal_x5F_table_1_);}
	.st3{clip-path:url(#SVGID_8_);fill:url(#Module_x5F_horizontal_x5F_freeze_1_);}
	.st4{fill:#BEB7BC;}
</style>
<g id="Layer_x5F_module">
	<g id="XMLID_96_">
		<g>
			<g>
				<defs>
					<path id="SVGID_1_" d="M1582.8,9.7h-633c-9.5,0-17.2,7.7-17.2,17.2v855.5c0,9.5,7.7,17.2,17.2,17.2h633
						c9.5,0,17.2-7.7,17.2-17.2V27C1600,17.5,1592.3,9.7,1582.8,9.7z"/>
				</defs>
				<clipPath id="SVGID_2_">
					<use xlink:href="#SVGID_1_"  style="overflow:visible;"/>
				</clipPath>

					<linearGradient id="Module_x5F_horizontal_x5F_rect-6_1_" gradientUnits="userSpaceOnUse" x1="1266.2999" y1="457.087" x2="1266.2999" y2="63.432" gradientTransform="matrix(1 0 0 1 0 -4.22)">
					<stop  offset="0" style="stop-color:#15D4D4"/>
					<stop  offset="2.754992e-003" style="stop-color:#15D4D8"/>
					<stop  offset="5.311728e-003" style="stop-color:#15D4E3"/>
					<stop  offset="7.782908e-003" style="stop-color:#15D4F6"/>
					<stop  offset="8.442776e-003" style="stop-color:#15D4FC"/>
					<stop  offset="3.658536e-002" style="stop-color:#3D3F3F"/>
					<stop  offset="5.534709e-002" style="stop-color:#000000"/>
					<stop  offset="8.794193e-002" style="stop-color:#3D3F3F"/>
					<stop  offset="0.1413" style="stop-color:#242525"/>
					<stop  offset="0.6536" style="stop-color:#222323"/>
					<stop  offset="0.894" style="stop-color:#3D3F3F"/>
					<stop  offset="0.9128" style="stop-color:#212222"/>
					<stop  offset="0.94" style="stop-color:#3D3F3F"/>
					<stop  offset="0.9727" style="stop-color:#15D4FC"/>
					<stop  offset="0.9859" style="stop-color:#1DB6B6"/>
					<stop  offset="1" style="stop-color:#000000"/>
				</linearGradient>
				<rect id="Module_x5F_horizontal_x5F_rect-6" x="932.5" y="35" class="st0" width="667.5" height="786.4"/>
			</g>
		</g>
		<g>
			<g>
				<defs>
					<path id="SVGID_3_" d="M1600,9.7H932.6v889.9H1600L1600,9.7C1600,9.7,1600,9.7,1600,9.7z"/>
				</defs>
				<clipPath id="SVGID_4_">
					<use xlink:href="#SVGID_3_"  style="overflow:visible;"/>
				</clipPath>

					<linearGradient id="Module_x5F_horizontal_x5F_rect-_1_" gradientUnits="userSpaceOnUse" x1="1266.2" y1="911.8359" x2="1266.2" y2="440.3214" gradientTransform="matrix(1 0 0 1 0 -4.22)">
					<stop  offset="6.845110e-002" style="stop-color:#000000"/>
					<stop  offset="0.2847" style="stop-color:#242525"/>
					<stop  offset="0.6536" style="stop-color:#222323"/>
					<stop  offset="0.7072" style="stop-color:#262728"/>
					<stop  offset="0.8529" style="stop-color:#2F2F32"/>
					<stop  offset="0.8848" style="stop-color:#1F1F21"/>
					<stop  offset="0.9128" style="stop-color:#0D0E0E"/>
					<stop  offset="0.94" style="stop-color:#3D3F3F"/>
					<stop  offset="0.9719" style="stop-color:#15D4FC"/>
					<stop  offset="0.9859" style="stop-color:#1DB6B6"/>
					<stop  offset="1" style="stop-color:#000000"/>
				</linearGradient>
				<rect id="Module_x5F_horizontal_x5F_rect-" x="932.3" y="448" class="st1" width="667.7" height="451.8"/>
			</g>
		</g>
		<g>
			<g>
				<defs>
					<path id="SVGID_5_" d="M1599.4,9.7H933.2c-0.3,0-0.6,0.3-0.6,0.6V899c0,0.3,0.3,0.6,0.6,0.6h666.2c0.3,0,0.6-0.3,0.6-0.6V10.4
						C1600,10,1599.7,9.7,1599.4,9.7z"/>
				</defs>
				<clipPath id="SVGID_6_">
					<use xlink:href="#SVGID_5_"  style="overflow:visible;"/>
				</clipPath>

					<linearGradient id="Module_x5F_horizontal_x5F_table_1_" gradientUnits="userSpaceOnUse" x1="932.55" y1="467.96" x2="1600.0499" y2="467.96" gradientTransform="matrix(1 0 0 1 0 -4.22)">
					<stop  offset="0" style="stop-color:#11C6D4"/>
					<stop  offset="4.500000e-002" style="stop-color:#096371"/>
					<stop  offset="8.000000e-002" style="stop-color:#00000E"/>
					<stop  offset="0.203" style="stop-color:#000000"/>
					<stop  offset="0.32" style="stop-color:#00000E"/>
					<stop  offset="0.3472" style="stop-color:#000F1E"/>
					<stop  offset="0.38" style="stop-color:#001C2C"/>
					<stop  offset="0.4292" style="stop-color:#001423"/>
					<stop  offset="0.5" style="stop-color:#00000E"/>
					<stop  offset="0.5708" style="stop-color:#001423"/>
					<stop  offset="0.62" style="stop-color:#001C2C"/>
					<stop  offset="0.68" style="stop-color:#00000E"/>
					<stop  offset="0.7491" style="stop-color:#000008"/>
					<stop  offset="0.8" style="stop-color:#000000"/>
					<stop  offset="0.92" style="stop-color:#00000E"/>
					<stop  offset="0.965" style="stop-color:#096371"/>
					<stop  offset="1" style="stop-color:#14E6F5"/>
				</linearGradient>
				<rect id="Module_x5F_horizontal_x5F_table" x="932.5" y="455.1" class="st2" width="667.5" height="17.3"/>
			</g>
		</g>
		<g>
			<g>
				<defs>
					<rect id="SVGID_7_" x="932.6" y="9.7" width="667.4" height="889.9"/>
				</defs>
				<clipPath id="SVGID_8_">
					<use xlink:href="#SVGID_7_"  style="overflow:visible;"/>
				</clipPath>

					<linearGradient id="Module_x5F_horizontal_x5F_freeze_1_" gradientUnits="userSpaceOnUse" x1="932.55" y1="41.46" x2="1600.0499" y2="41.46" gradientTransform="matrix(1 0 0 1 0 -4.22)">
					<stop  offset="0" style="stop-color:#11C6D4"/>
					<stop  offset="4.500000e-002" style="stop-color:#096371"/>
					<stop  offset="8.000000e-002" style="stop-color:#00000E"/>
					<stop  offset="0.203" style="stop-color:#000000"/>
					<stop  offset="0.32" style="stop-color:#00000E"/>
					<stop  offset="0.3472" style="stop-color:#000F1E"/>
					<stop  offset="0.38" style="stop-color:#001C2C"/>
					<stop  offset="0.4292" style="stop-color:#001423"/>
					<stop  offset="0.5" style="stop-color:#00000E"/>
					<stop  offset="0.5708" style="stop-color:#001423"/>
					<stop  offset="0.62" style="stop-color:#001C2C"/>
					<stop  offset="0.68" style="stop-color:#00000E"/>
					<stop  offset="0.7491" style="stop-color:#000008"/>
					<stop  offset="0.8" style="stop-color:#000000"/>
					<stop  offset="0.92" style="stop-color:#00000E"/>
					<stop  offset="0.965" style="stop-color:#096371"/>
					<stop  offset="1" style="stop-color:#14E6F5"/>
				</linearGradient>
				<rect id="Module_x5F_horizontal_x5F_freeze" x="932.5" y="8.7" class="st3" width="667.5" height="57.1"/>
			</g>
		</g>
	</g>
</g>
<g id="Gray-horizontal" visibility="hidden">
	<path id="Bin-gray-2" class="st4" d="M1555.5,665.9h-164.7c-2.2,0-4,1.8-4,4v10c0,2.2,1.8,4,4,4h8.9h0.7
		c0.6,10.2,1.1,20.5,1.8,30.7c0.2,2.9,0.4,5.7,0.5,8.6c3.8,49.8,9.8,128.8,10.5,134.1c0.9,6.6,1.3,12.9,7.1,15.5
		c6.4,2.9,19.6,3.4,44.1,3.4h8.8h8.8c24.5,0,37.7-0.5,44.1-3.4c5.8-2.6,6.2-8.9,7.1-15.5c0.7-5.2,6.7-84.2,10.5-134
		c0.2-2.9,0.4-5.8,0.5-8.7c0.6-10.2,1.2-20.5,1.8-30.7h0.7h8.9c2.2,0,4-1.8,4-4v-10C1559.5,667.7,1557.8,665.9,1555.5,665.9z"/>
	<path id="Disp-large-gray-2" class="st4" d="M1514.3,628.8c0,3.6,11.5,5.2,28.4,5c15.7-0.2,28.3-1,28.4-5l0,0V472.3h-56.8
		C1514.3,526.6,1514.3,628.8,1514.3,628.8z"/>
	<path id="Disp-small-gray-2" class="st4" d="M1430,628.8c0,3.6,11.5,5.2,28.4,5c15.7-0.2,28.3-1,28.4-5l0,0V472.3H1430
		C1430,526.6,1430,628.8,1430,628.8z"/>
	<path id="Glass-large-gray-2" class="st4" d="M1553.4,402.2c0-0.1,0-0.2,0-0.3c0-0.2-0.2-0.5-0.5-0.7c-0.2-0.2-0.6-0.3-1-0.5
		c-0.5-0.2-1.2-0.4-2-0.5c-0.7-0.1-1.4-0.3-2.3-0.4c-0.7-0.1-1.5-0.1-2.3-0.2c-0.6,0-1.2-0.1-1.9-0.1c-0.7,0-1.4,0-2.1,0
		c-0.8,0-1.5,0.1-2.3,0.1c-0.7,0.1-1.4,0.1-2,0.2c-0.7,0.1-1.4,0.2-2,0.3c-0.7,0.1-1.3,0.3-1.8,0.5c-0.9,0.3-1.4,0.7-1.5,1.2
		c0,0.1,0,0.2,0,0.3c-2.8,17.6-5.6,35.3-8.4,53h38.4C1559,437.5,1556.3,419.8,1553.4,402.2z"/>
	<path id="Glass-small-gray-2" class="st4" d="M1467.9,412.6c0-0.1,0-0.2,0-0.2c0-0.2-0.2-0.4-0.5-0.5c-0.2-0.1-0.5-0.3-0.8-0.4
		c-0.5-0.2-1.1-0.3-1.7-0.4s-1.3-0.2-2-0.3c-0.6-0.1-1.3-0.1-2-0.2c-0.5,0-1.1,0-1.7-0.1c-0.6,0-1.3,0-1.9,0c-0.7,0-1.3,0-2,0.1
		c-0.6,0-1.2,0.1-1.8,0.2c-0.6,0.1-1.2,0.2-1.8,0.3s-1.1,0.3-1.6,0.4c-0.8,0.3-1.2,0.6-1.3,0.9c0,0.1,0,0.2,0,0.2
		c-2.4,14.2-4.9,28.4-7.3,42.5h33.6C1472.8,441,1470.4,426.8,1467.9,412.6z"/>
	<path id="Waste-gray-2" class="st4" d="M1341.8,721.8c-1.1-0.7-2.3-1.4-2.8-2.1c0-11.8,0-23.5,0-35.3c0.3-0.9,2.3-1.4,3.5-2.6
		c0.6-0.5,0.9-1.3,0.9-2.2c0-0.4,0-1,0-1.5c0-2.7,0-6.5,0-7.6c0-1.8,0-4.7,0-7.7c0-0.3,0-0.6,0-1c0-0.5-0.6-1.1-1.4-1.6
		c-1.7-1.2-4.2-2.3-4.2-2.9l0,0c0-2.5,0-5.6-0.2-7c-0.1-0.9-0.3-1.6-0.6-1.9c-1.3-1.2-2.7-2.3-4.4-3.5
		c-11.6-8.5-31.5-18.2-44.2-25.4c-3.4-1.9-5.9-3.7-7.8-5.3c-1.7-1.5-2.7-2.8-3.2-3.8c-0.2-0.4-0.3-0.9-0.3-1.2l0,0
		c0-6.1,0-9.6,0-14.7c0-0.3,0-0.6,0-0.8c0.4-0.2,0.7-0.8,0.7-1.4c0-0.5,0-1,0-1.6c0-0.4,0-0.7,0-1.1c0-2.8,0-6.3,0-8.7
		c0-0.1,0-0.1,0-0.2c0.3,0,0.5,0,0.8,0c1.3,0,2.6,0.1,3.8,0.1c0-0.1,0-0.2,0-0.3s0-0.2,0-0.3s0-0.2,0-0.2c0-0.3,0-0.6,0-0.9
		c0-0.3,0-0.6,0-0.9c0-0.1,0-0.2,0-0.3s0-0.2,0-0.4c-1.2,0-2.5-0.1-3.7-0.1c-0.3,0-0.6,0-0.8,0c0-0.5,0-1,0-1.4c0-0.5,0-1,0-1.5
		c0-0.4,0-0.8,0-1.2c0-0.7,0-1.5,0-2.2s0-1.5,0-2.2c0-1.5,0-2.9,0-4.3c0-0.5,0-1,0-1.4c0-0.6,0-1.2,0-1.8c-1-0.2-1.9-0.4-2.9-0.5
		s-2-0.2-3-0.2c-1.2-0.1-2.4-0.1-3.7-0.1c-0.7,0-1.4,0-2.1,0c-0.5,0-0.9,0-1.4,0l3.3-2l-3.3-2.1l3.3-2.1l-3.3-2.1l3.3-2.1l-3.3-2.1
		l3.3-2.1l-3.3-2.1l3.3-2.1l-3.3-2.1l3.3-2.1l-3.3-2.1l3.3-2.1l-3.3-2.1l3.3-2.1l-3.3-2.1l3.3-2.1l-3.3-2.1l3.3-2.1l-3.3-2.1h-8.3
		l-3.3,2.1l3.3,2.1l-3.3,2.1l3.3,2.1l-3.3,2.1l3.3,2.1l-3.3,2.1l3.3,2.1l-3.3,2.1l3.3,2.1l-3.3,2.1l3.3,2.1l-3.3,2.1l3.3,2.1
		l-3.3,2.1l3.3,2.1l-3.3,2.1l3.3,2.1l-3.3,2.1l3.3,2.1h-0.1c-0.2,0-0.5,0-0.7,0c-0.8,0-1.6,0-2.3,0c-0.8,0-1.7,0-2.5,0.1
		c-0.5,0-1,0-1.5,0.1c-0.6,0-1.1,0.1-1.7,0.1c-1.2,0.1-2.3,0.3-3.4,0.5c0,0.6,0,1.2,0,1.8c0,0.5,0,0.9,0,1.4c0,1.4,0,2.9,0,4.3
		c0,0.7,0,1.5,0,2.2s0,1.5,0,2.2c0,0.4,0,0.8,0,1.2c0,0.5,0,1,0,1.5s0,1,0,1.5c-0.1,0-0.1,0-0.2,0c-1.5,0-3,0.1-4.4,0.1
		c0,0.1,0,0.2,0,0.4c0,0.1,0,0.2,0,0.3c0,0.3,0,0.6,0,0.9c0,0.3,0,0.6,0,0.9c0,0.1,0,0.2,0,0.2c0,0.1,0,0.2,0,0.3s0,0.2,0,0.3
		c1.5,0,3-0.1,4.5-0.1l0,0c0,0.1,0,0.1,0,0.2c0,2.4,0,5.9,0,8.7c0,0.4,0,0.8,0,1.1c0,0.6,0,1.1,0,1.6c0,0.6,0.4,1,0.7,1.1
		c0,0.3,0,0.7,0,1c0,5.1,0,8.6,0,14.8l0,0c0,0.4-0.1,0.8-0.3,1.2c-0.4,1.1-1.4,2.4-3.1,3.8c-1.8,1.6-4.3,3.4-7.6,5.4
		c-12.8,7.4-33.6,17-45.5,25.4c-1.7,1.2-3.2,2.4-4.5,3.5c-0.3,0.3-0.5,0.9-0.5,1.8c-0.1,1.4-0.1,4.5,0,7l0,0c0,0.6-2.6,1.6-4.1,2.7
		c-0.7,0.5-1.2,1-1.2,1.6c0,0.3,0,0.6,0,0.9c0,2.9-0.2,6.2-0.2,8c0,1.1,0,4.9,0,7.6c0,0.6,0,1.1,0,1.5c0,1,0.4,1.7,0.9,2.2
		c1.3,1.3,3.5,1.8,3.5,2.9c0,0,0,0,0.1,0c0,11.5,0,22.9,0,34.4c-0.1,0-0.2,0-0.2,0c0,0.9-1.5,1.8-2.8,2.8c-1,0.7-1.9,1.4-1.9,2.1
		c0,0.4,0,0.8,0,1.2c0,6,0,11.9,0,17.9c0,0.6,0.6,1.1,1.3,1.7c1.4,1,3.4,2.1,3.4,3.1c0.1,0,0.1,0,0.2,0.1c0,23.3,0,60.8,0,77.5
		c0,1.1-2.4,2.1-3.8,3.2c-0.6,0.5-1.1,1-1.1,1.6c0,0.5,0,0.6,0,1.1c0,7,0,20.3,0,26.2c0,0.7,0.4,1.8,1,3c0.9,1.8,2.2,4,3.7,5.7
		c2,1.5,4.8,2.8,8.3,3.9c1.7,0.5,3.6,1,5.6,1.5c4.2,0.9,9,1.7,14.5,2.3c2.9,0.3,6,0.6,9.3,0.9c4,0.3,8.1,0.6,12.5,0.7
		c2.8,0.1,5.6,0.2,8.5,0.3c6.5,0.2,13.4,0.3,20.6,0.3c8.1,0,15.9-0.1,23.3-0.4c3-0.1,5.9-0.2,8.7-0.4c3.5-0.2,6.8-0.4,10-0.7
		c3.5-0.3,6.9-0.6,10.1-1c3.1-0.4,5.9-0.8,8.5-1.3c3.6-0.7,6.8-1.4,9.5-2.2c3.6-1.1,6.2-2.4,7.6-3.9c2.3-1.7,3.7-3.9,4.4-5.7
		c0.5-1.3,0.7-2.4,0.7-3c0-5.9,0-19.1,0-26.1c0-0.6,0-1.1,0-1.6s-0.5-1-1.2-1.6c-1.2-0.9-3-1.8-3.7-2.7c0-16.5,0-54.6,0-78.2
		c0.6-0.8,2.2-1.7,3.5-2.5c0.8-0.6,1.4-1.1,1.4-1.7c0-6,0-11.9,0-17.9c0-0.4,0-0.8,0-1.2C1343.8,723.2,1342.8,722.5,1341.8,721.8z"
		/>
	<path id="Water-gray-2" class="st4" d="M1132.4,721.8c-1.1-0.7-2.3-1.4-2.8-2.1c0-11.8,0-23.5,0-35.3c0.3-0.9,2.3-1.4,3.5-2.6
		c0.6-0.5,1-1.3,1-2.2c0-0.4,0-1,0-1.5c0-2.7,0-6.5,0-7.6c0-1.8,0-4.7,0-7.7c0-0.3,0-0.6,0-1c0-0.5-0.6-1.1-1.4-1.6
		c-1.7-1.2-4.2-2.3-4.2-2.9l0,0c0-2.5,0-5.6-0.2-7c-0.1-0.9-0.3-1.6-0.6-1.9c-1.3-1.2-2.7-2.3-4.4-3.5
		c-11.6-8.5-31.5-18.2-44.2-25.4c-3.4-1.9-5.9-3.7-7.8-5.3c-1.7-1.5-2.7-2.8-3.2-3.8c-0.2-0.4-0.3-0.9-0.3-1.2l0,0
		c0-6.1,0-9.6,0-14.7c0-0.3,0-0.6,0-0.8c0.4-0.2,0.7-0.8,0.7-1.4c0-0.5,0-1,0-1.6c0-0.4,0-0.7,0-1.1c0-2.8,0-6.3,0-8.7
		c0-0.1,0-0.1,0-0.2c0.3,0,0.5,0,0.8,0c1.3,0,2.6,0.1,3.8,0.1c0-0.1,0-0.2,0-0.3s0-0.2,0-0.3s0-0.2,0-0.2c0-0.3,0-0.6,0-0.9
		c0-0.3,0-0.6,0-0.9c0-0.1,0-0.2,0-0.3s0-0.2,0-0.4c-1.2,0-2.5-0.1-3.7-0.1c-0.3,0-0.6,0-0.8,0c0-0.5,0-1,0-1.4c0-0.5,0-1,0-1.5
		c0-0.4,0-0.8,0-1.2c0-0.7,0-1.5,0-2.2s0-1.5,0-2.2c0-1.5,0-2.9,0-4.3c0-0.5,0-1,0-1.4c0-0.6,0-1.2,0-1.8c-1-0.2-1.9-0.4-2.9-0.5
		s-2-0.2-3-0.2c-1.2-0.1-2.4-0.1-3.7-0.1c-0.7,0-1.4,0-2.1,0s-1.3,0-2,0v-28.2c0.4,0,0.7,0,1.1,0c0.7,0,1.3,0,2,0c0.6,0,1.1,0,1.7,0
		s1.1,0,1.7,0c0.5,0,0.9,0,1.4,0s0.9,0,1.4,0s0.9,0,1.4,0.1c0.5,0,0.9,0.1,1.4,0.1c0-0.4,0-0.7,0-1.1c0-0.3,0-0.7,0-1.1
		c0-0.3,0-0.6,0-0.8c0-0.5,0-1,0-1.6s0-1,0-1.5c0-1,0-2,0-3c0-0.3,0-0.7,0-1c0-0.4,0-0.8,0-1.2c-0.9-0.1-1.8-0.2-2.7-0.3
		s-1.8-0.1-2.8-0.2c-1.1,0-2.3-0.1-3.4-0.1c-0.7,0-1.3,0-2,0c-1.5,0-3.1,0-4.6,0c-1.3,0-2.6,0-4,0c-0.4,0-0.9,0-1.3,0
		c-0.7,0-1.4,0-2.2,0c-0.8,0-1.6,0-2.4,0c-0.5,0-0.9,0-1.4,0s-1,0-1.6,0.1c-1.1,0.1-2.2,0.2-3.2,0.3c0,0.4,0,0.8,0,1.2
		c0,0.3,0,0.7,0,1c0,1,0,2,0,3c0,0.5,0,1,0,1.5s0,1,0,1.6c0,0.3,0,0.6,0,0.8c0,0.3,0,0.7,0,1c0,0.4,0,0.7,0,1.1c0.5,0,1.1,0,1.7-0.1
		c0.6-0.1,1.1,0,1.7-0.1c0.5,0,1,0,1.6,0c0.5,0,0.9,0,1.4,0c0.8,0,1.5,0,2.3,0c0.7,0,1.4,0,2.1,0c0.4,0,0.9,0,1.3,0c0,0,0,0,0.1,0
		v28.3c-0.4,0-0.9,0-1.3,0c-0.8,0-1.6,0-2.3,0c-0.8,0-1.7,0-2.5,0.1c-0.5,0-1,0-1.5,0.1c-0.6,0-1.1,0.1-1.7,0.1
		c-1.2,0.1-2.3,0.3-3.4,0.5c0,0.6,0,1.2,0,1.8c0,0.5,0,0.9,0,1.4c0,1.4,0,2.9,0,4.3c0,0.7,0,1.5,0,2.2s0,1.5,0,2.2
		c0,0.4,0,0.8,0,1.2c0,0.5,0,1,0,1.5s0,1,0,1.5c-0.1,0-0.1,0-0.2,0c-1.5,0-3,0.1-4.4,0.1c0,0.1,0,0.2,0,0.4c0,0.1,0,0.2,0,0.3
		c0,0.3,0,0.6,0,0.9c0,0.3,0,0.6,0,0.9c0,0.1,0,0.2,0,0.2c0,0.1,0,0.2,0,0.3s0,0.2,0,0.3c1.5,0,3-0.1,4.5-0.1l0,0c0,0.1,0,0.1,0,0.2
		c0,2.4,0,5.9,0,8.7c0,0.4,0,0.8,0,1.1c0,0.6,0,1.1,0,1.6c0,0.6,0.4,1,0.7,1.1c0,0.3,0,0.7,0,1c0,5.1,0,8.6,0,14.8l0,0
		c0,0.4-0.1,0.8-0.3,1.2c-0.4,1.1-1.4,2.4-3.1,3.8c-1.8,1.6-4.3,3.4-7.6,5.4c-12.8,7.4-33.6,17-45.5,25.4c-1.7,1.2-3.2,2.4-4.5,3.5
		c-0.3,0.3-0.5,0.9-0.5,1.8c-0.1,1.4-0.1,4.5,0,7l0,0c0,0.6-2.6,1.6-4.1,2.7c-0.7,0.5-1.2,1-1.2,1.6c0,0.3,0,0.6,0,0.9
		c0,2.9-0.2,6.2-0.2,8c0,1.1,0,4.9,0,7.6c0,0.6,0,1.1,0,1.5c0,1,0.4,1.7,0.9,2.2c1.3,1.3,3.5,1.8,3.5,2.9c0,0,0,0,0.1,0
		c0,11.5,0,22.9,0,34.4c-0.1,0-0.2,0-0.2,0c0,0.9-1.5,1.8-2.8,2.8c-1,0.7-1.9,1.4-1.9,2.1c0,0.4,0,0.8,0,1.2c0,6,0,11.9,0,17.9
		c0,0.6,0.6,1.1,1.3,1.7c1.4,1,3.4,2.1,3.4,3.1c0.1,0,0.1,0,0.2,0.1c0,23.3,0,60.8,0,77.5c0,1.1-2.4,2.1-3.8,3.2
		c-0.6,0.5-1.1,1-1.1,1.6c0,0.5,0,0.6,0,1.1c0,7,0,20.3,0,26.2c0,0.7,0.4,1.8,1,3c0.9,1.8,2.2,4,3.7,5.7c2,1.5,4.8,2.8,8.3,3.9
		c1.7,0.5,3.6,1,5.6,1.5c4.2,0.9,9,1.7,14.5,2.3c2.9,0.3,6,0.6,9.3,0.9c4,0.3,8.1,0.6,12.5,0.7c2.8,0.1,5.6,0.2,8.5,0.3
		c6.5,0.2,13.4,0.3,20.6,0.3c8.1,0,15.9-0.1,23.3-0.4c3-0.1,5.9-0.2,8.7-0.4c3.5-0.2,6.8-0.4,10-0.7c3.5-0.3,6.9-0.6,10.1-1
		c3.1-0.4,5.9-0.8,8.5-1.3c3.6-0.7,6.8-1.4,9.5-2.2c3.6-1.1,6.2-2.4,7.6-3.9c2.3-1.7,3.7-3.9,4.4-5.7c0.5-1.3,0.7-2.4,0.7-3
		c0-5.9,0-19.1,0-26.1c0-0.6,0-1.1,0-1.6s-0.5-1-1.2-1.6c-1.2-0.9-3-1.8-3.7-2.7c0-16.5,0-54.6,0-78.2c0.6-0.8,2.2-1.7,3.5-2.5
		c0.8-0.6,1.4-1.1,1.4-1.7c0-6,0-11.9,0-17.9c0-0.4,0-0.8,0-1.2C1134.5,723.2,1133.5,722.5,1132.4,721.8z"/>
	<path id="Syrop-gray-6" class="st4" d="M1392,285.3c0.5,0,0.9,0,1.3,0s0.8,0,1.1,0.1c0.3,0,0.7,0.1,1,0.1v0.4v0.4v1.2v0.6v0.6v0.3
		v0.4v0.3c-0.1,0-0.3,0-0.4,0c-0.2,0-0.4,0-0.6,0s-0.4,0-0.6,0s-0.4,0-0.6,0h-0.7h-0.7h-0.3h-0.1h-0.1v0.1v25.9v0.1h0.1h0.1
		c0.1,0,0.2,0,0.4,0l0,0h0.1c0.5,0,0.9,0,1.3,0.1c0.4,0,0.8,0.1,1.1,0.2c0.3,0.1,0.7,0.2,1,0.3v1.1v0.9v2.9v1.5v1.5v0.8v1v1v0.1h0.1
		h0.1h0.2c0.4,0,0.9,0,1.3,0.1v0.1v0.2v0.6v0.6v0.2v0.2l0,0c-0.4,0-0.9,0-1.3-0.1h-0.2h-0.1h-0.2v0.2c0,5.9,0.1,13.7,0.2,20.1
		c0,4.8,0.1,8.5,0.1,9.3c0,1,1.1,2,2.7,3.3c2.7,2.4,6.9,6,6.9,12.5V453c0,0.9-0.2,1.6-0.6,2.2h-30.8c-0.4-0.6-0.6-1.3-0.6-2.2v-78.5
		c0-5.9,3.8-9.4,6.6-12c1.6-1.5,2.9-2.7,2.9-3.9c0-0.5,0-3.5,0.1-7.6c0.1-6.5,0.1-15.3,0.2-21.8V329h-0.2l0,0l0,0
		c-0.5,0-1.1,0-1.6,0l0,0v-0.1v-0.2v-0.6v-0.6v-0.2v-0.1c0.5,0,1-0.1,1.6-0.1l0,0h0.1V327v-1v-1v-0.8v-1.5v-1.5v-2.9v-0.9v-1.1
		c0.4-0.1,0.8-0.2,1.2-0.3c0.2,0,0.4-0.1,0.6-0.1s0.4,0,0.6,0c0.3,0,0.6,0,1,0c0.2,0,0.4,0,0.6,0h0.1h0.1l0,0v-26v-0.1h-0.1h-0.6
		c-0.3,0-0.6,0-0.9,0h-0.6c-0.2,0-0.4,0-0.6,0s-0.5,0-0.7,0s-0.4,0-0.5,0v-0.3v-0.4v-0.3v-0.6v-0.6v-1.2v-0.5v-0.4
		c0.4,0,0.8-0.1,1.2-0.1c0.2,0,0.4,0,0.6,0s0.4,0,0.6,0c0.3,0,0.6,0,1,0c0.2,0,0.4,0,0.7,0h0.2h0.2h0.4c0.3,0,0.5,0,0.7,0
		c0.3,0,0.6,0,0.9,0c0.2,0,0.4,0,0.6,0h0.6h0.6h0.2c0.2,0,0.5,0,0.7,0h-0.3L1392,285.3"/>
	<path id="Syrop-gray-5" class="st4" d="M1350.3,285.3c0.5,0,0.9,0,1.3,0s0.8,0,1.1,0.1c0.3,0,0.7,0.1,1,0.1v0.4v0.4v1.2v0.6v0.6
		v0.3v0.4v0.3c-0.1,0-0.3,0-0.4,0c-0.2,0-0.4,0-0.6,0s-0.4,0-0.6,0s-0.4,0-0.6,0h-0.7h-0.7h-0.3h-0.1h-0.1v0.1v25.9v0.1h0.1h0.1
		c0.1,0,0.2,0,0.4,0l0,0h0.1c0.5,0,0.9,0,1.3,0.1c0.4,0,0.8,0.1,1.1,0.2c0.3,0.1,0.7,0.2,1,0.3v1.1v0.9v2.9v1.5v1.5v0.8v1v1v0.1h0.1
		h0.1h0.2c0.4,0,0.9,0,1.3,0.1v0.1v0.2v0.6v0.6v0.2v0.2l0,0c-0.4,0-0.9,0-1.3-0.1h-0.2h-0.1h-0.2v0.2c0,5.9,0.1,13.7,0.2,20.1
		c0,4.8,0.1,8.5,0.1,9.3c0,1,1.1,2,2.7,3.3c2.7,2.4,6.9,6,6.9,12.5V453c0,0.9-0.2,1.6-0.6,2.2h-30.7c-0.4-0.6-0.6-1.3-0.6-2.2v-78.5
		c0-5.9,3.8-9.4,6.6-12c1.6-1.5,2.9-2.7,2.9-3.9c0-0.5,0-3.5,0.1-7.6c0.1-6.5,0.1-15.3,0.2-21.8V329h-0.2l0,0l0,0
		c-0.5,0-1.1,0-1.6,0l0,0v-0.1v-0.2v-0.6v-0.6v-0.2v-0.1c0.5,0,1-0.1,1.6-0.1l0,0h0.1V327v-1v-1v-0.8v-1.5v-1.5v-2.9v-0.9v-1.1
		c0.4-0.1,0.8-0.2,1.2-0.3c0.2,0,0.4-0.1,0.6-0.1s0.4,0,0.6,0c0.3,0,0.6,0,1,0c0.2,0,0.4,0,0.6,0h0.1h0.1l0,0v-26v-0.1h-0.1h-0.6
		c-0.3,0-0.6,0-0.9,0h-0.6c-0.2,0-0.4,0-0.6,0s-0.5,0-0.7,0s-0.4,0-0.5,0v-0.3v-0.4v-0.3v-0.6v-0.6v-1.2v-0.5v-0.4
		c0.4,0,0.8-0.1,1.2-0.1c0.2,0,0.4,0,0.6,0s0.4,0,0.6,0c0.3,0,0.6,0,1,0c0.2,0,0.4,0,0.7,0h0.2h0.2h0.4c0.3,0,0.5,0,0.7,0
		c0.3,0,0.6,0,0.9,0c0.2,0,0.4,0,0.6,0h0.6h0.6h0.2c0.2,0,0.5,0,0.7,0h-0.4L1350.3,285.3"/>
	<path id="Syrop-gray-4" class="st4" d="M1308.7,285.3c0.5,0,0.9,0,1.3,0s0.8,0,1.1,0.1c0.3,0,0.7,0.1,1,0.1v0.4v0.4v1.2v0.6v0.6
		v0.3v0.4v0.3c-0.1,0-0.3,0-0.4,0c-0.2,0-0.4,0-0.6,0s-0.4,0-0.6,0s-0.4,0-0.6,0h-0.7h-0.7h-0.3h-0.1h-0.1v0.1v25.9v0.1h0.1h0.1
		c0.1,0,0.2,0,0.4,0l0,0h0.1c0.5,0,0.9,0,1.3,0.1c0.4,0,0.8,0.1,1.1,0.2c0.3,0.1,0.7,0.2,1,0.3v1.1v0.9v2.9v1.5v1.5v0.8v1v1v0.1h0.1
		h0.1h0.2c0.4,0,0.9,0,1.3,0.1v0.1v0.2v0.6v0.6v0.2v0.2l0,0c-0.4,0-0.9,0-1.3-0.1h-0.2h-0.1h-0.2v0.2c0,5.9,0.1,13.7,0.2,20.1
		c0,4.8,0.1,8.5,0.1,9.3c0,1,1.1,2,2.7,3.3c2.7,2.4,6.9,6,6.9,12.5V453c0,0.9-0.2,1.6-0.6,2.2h-30.7c-0.4-0.6-0.6-1.3-0.6-2.2v-78.5
		c0-5.9,3.8-9.4,6.6-12c1.6-1.5,2.9-2.7,2.9-3.9c0-0.5,0-3.5,0.1-7.6c0.1-6.5,0.1-15.3,0.2-21.8V329h-0.2l0,0l0,0
		c-0.5,0-1.1,0-1.6,0l0,0v-0.1v-0.2v-0.6v-0.6v-0.2v-0.1c0.5,0,1-0.1,1.6-0.1l0,0h0.1V327v-1v-1v-0.8v-1.5v-1.5v-2.9v-0.9v-1.1
		c0.4-0.1,0.8-0.2,1.2-0.3c0.2,0,0.4-0.1,0.6-0.1s0.4,0,0.6,0c0.3,0,0.6,0,1,0c0.2,0,0.4,0,0.6,0h0.1h0.1l0,0v-26v-0.1h-0.1h-0.6
		c-0.3,0-0.6,0-0.9,0h-0.6c-0.2,0-0.4,0-0.6,0s-0.5,0-0.7,0s-0.4,0-0.5,0v-0.3v-0.4v-0.3v-0.6v-0.6v-1.2v-0.5v-0.4
		c0.4,0,0.8-0.1,1.2-0.1c0.2,0,0.4,0,0.6,0s0.4,0,0.6,0c0.3,0,0.6,0,1,0c0.2,0,0.4,0,0.7,0h0.2h0.2h0.4c0.3,0,0.5,0,0.7,0
		c0.3,0,0.6,0,0.9,0c0.2,0,0.4,0,0.6,0h0.6h0.6h0.2c0.2,0,0.5,0,0.7,0h-0.4L1308.7,285.3"/>
	<g id="Fridge-gray-2">
		<g id="XMLID_190_">
			<path id="XMLID_191_" class="st4" d="M1252.8,286.7h-118.9c-4.6,0-8.4,3.7-8.4,8.4v151.8c0,4.6,3.7,8.4,8.4,8.4h118.9
				c4.6,0,8.4-3.7,8.4-8.4V295.1C1261.3,290.4,1257.4,286.7,1252.8,286.7z"/>
		</g>
	</g>
	<path id="CM-gray-2" class="st4" d="M1089.3,242.6h-8.9v-39.7h-6.2h-9.5h-9.5h-7.8h-8.7v39.7h-16.2v-39.7h-41.7v39.7h-10.4
		c-4.6,0-8.4,3.7-8.4,8.4v195.9c0,4.6,3.7,8.4,8.4,8.4h118.9c4.6,0,8.4-3.7,8.4-8.4v-196C1097.7,246.3,1093.8,242.6,1089.3,242.6z"
		/>
	<rect id="Tv-gray-2" x="1134.2" y="102.9" class="st4" width="264.8" height="147.1"/>
</g>
</svg>
