<svg xmlns="http://www.w3.org/2000/svg" width="64pt" fill="white" height="64pt" viewBox="0 0 22.578 22.578"><path d="M3.123 275.392a.355.355 0 0 0-.35.289l-.296 1.53h17.976l-.295-1.489a.355.355 0 0 0-.346-.285zm-1.421 2.53v.71H21.23v-.71H1.702zm-.71 4.262h2.903l.568-2.841H1.958l-.953 2.42zm4.197-2.841-.569 2.841h2.117l.568-2.841zm2.841 0-.569 2.841h2.117l.568-2.841zm2.839 0-.569 2.841h1.975l-.569-2.841zm1.563 0 .568 2.841h2.116l-.568-2.841zm2.841 0 .568 2.841h2.117l-.569-2.841zm6.286 2.355-.94-2.355h-2.504l.567 2.841h2.904zM.992 282.896a1.78 1.78 0 0 0 1.774 1.774c.58 0 1.097-.28 1.422-.713.324.432.84.713 1.42.713.579 0 1.095-.28 1.42-.713.324.433.842.713 1.421.713.579 0 1.094-.28 1.419-.712a1.775 1.775 0 0 0 2.841 0c.325.431.84.712 1.42.712s1.096-.28 1.42-.713c.325.432.842.713 1.421.713.58 0 1.095-.28 1.42-.713.325.433.842.713 1.422.713a1.78 1.78 0 0 0 1.774-1.774zm3.195 2.001c-.582.454-1.128.54-1.774.485v8.518h11.716v-5.504c0-1.288 1.132-2.307 2.485-2.307 1.352 0 2.487 1.016 2.487 2.286v5.525h1.419v-8.595c-.75.218-1.59.183-2.13-.408-.412.294-.88.511-1.42.511-.54 0-1.008-.217-1.42-.511-.413.294-.88.511-1.421.511-.54 0-1.009-.217-1.421-.511-.412.294-.88.511-1.42.511-.54 0-1.009-.218-1.421-.511-.412.293-.88.511-1.419.511-.54 0-1.008-.217-1.42-.511-.412.294-.88.511-1.421.511-.54 0-1.008-.217-1.42-.511zm.713 1.153 7.1.034a1.077 1.077 0 0 1 1.065 1.069v5.326a.355.355 0 0 1 0 .711H3.833a.355.355 0 1 1 0-.71v-5.369c0-.584.482-1.064 1.067-1.061zm-.005.71a.346.346 0 0 0-.354.351v5.369h7.813v-5.326a.355.355 0 0 0-.358-.36zm11.719.04c-1.001 0-1.775.727-1.775 1.596v5.504h3.552v-5.525c0-.843-.777-1.576-1.777-1.576zm-10.943.681h4.012c.197 0 .356.158.357.354 0 .18 0 .347-.002.512.245-.035.504-.043.762.025.21.056.424.18.569.382.43.592.289 1.904-.572 2.334-.39.206-.85.186-1.3.008-.204.325-.466.663-.705.663h-2.23c-.528 0-1.017-1.198-1.13-1.735-.122-.611-.118-1.296-.118-2.189.001-.196.16-.354.357-.353zm11.3.03c.387 0 .71.321.71.71v.71a.713.713 0 0 1-.71.707h-.711a.713.713 0 0 1-.71-.708v-.71c0-.382.312-.7.692-.71zm-10.929.68c.004.67.004 1.277.087 1.694.093.462.29.798.626 1.163h1.843c.337-.365.535-.701.627-1.163.083-.417.083-1.023.086-1.694zm10.218.03v.71h.71v-.71zm-6.454 2.233c.279.1.503.087.658.005.45-.275.632-.855.328-1.293-.153-.182-.497-.123-.767-.093a6.649 6.649 0 0 1-.219 1.381zm5.744-.105c.196 0 .354.16.354.356v.71a.355.355 0 0 1-.71 0v-.71c-.001-.197.159-.357.356-.356zm-13.848 4.26v1.067c0 .195.158.353.353.354h18.82a.355.355 0 0 0 .355-.354v-1.066z" style="color:#000;display:inline;fill:#000;stroke-width:1;stroke-linecap:round;stroke-linejoin:round;-inkscape-stroke:none" transform="translate(0 -274.422)"/></svg>