<svg xmlns="http://www.w3.org/2000/svg" xml:space="preserve" fill="white" style="fill-rule:evenodd;clip-rule:evenodd;stroke-linejoin:round;stroke-miterlimit:2" viewBox="0 0 64 64"><path d="M14.094 28.245V59h-2.169a1 1 0 0 0 0 2h39.622a1 1 0 0 0 0-2h-1.641V28.245h.169c.796 0 1.559-.316 2.122-.878a3.004 3.004 0 0 0 .878-2.122V6a3 3 0 0 0-3-3h-36.15a3 3 0 0 0-3 3v19.245c0 .796.316 1.559.878 2.122a3.004 3.004 0 0 0 2.122.878h.169ZM46 31a1 1 0 0 0-1-1H19a1 1 0 0 0-1 1v25.408a1 1 0 0 0 1 1h26a1 1 0 0 0 1-1V31Zm-18.17 1H20v23.408h5.362L23.61 39.897a.998.998 0 0 1 .994-1.112h14.792a1.002 1.002 0 0 1 .994 1.112l-1.752 15.511H44V32h-7.83v2.415a1 1 0 0 1-1 1H33V36a1 1 0 0 1-2 0v-.585h-2.17a1 1 0 0 1-1-1V32Zm9.737 15.07c-1.074.68-2.015.921-2.862.921-1.21 0-2.264-.511-3.299-1.135-1.44-.868-2.845-2.058-5.095-.865l.992 8.783h9.394l.87-7.704Zm-11.493-3.178c2.18-.899 3.794-.267 5.294.603.624.362 1.223.772 1.848 1.084.494.246 1.004.431 1.577.41.82-.03 1.728-.473 2.872-1.519a.967.967 0 0 1 .213-.15l.399-3.535H25.723l.351 3.107Zm8.096-11.647v1.17h-4.34v-1.17h4.34ZM51.075 20h-38.15v5.245a1 1 0 0 0 1 1h36.15a1 1 0 0 0 1-1V20ZM42.623 5v6.453H21.377V5h21.246ZM29.887 9.226h4.226a1 1 0 0 0 0-2h-4.226a1.001 1.001 0 0 0 0 2Z"/></svg>