<svg xmlns="http://www.w3.org/2000/svg" width="64pt" style="fill-rule:evenodd;clip-rule:evenodd;stroke-linejoin:round;stroke-miterlimit:2" height="64pt" viewBox="0 0 22.578 22.578" fill="white" >
<path d="M13.253 275.393a4.634 4.634 0 0 0-4.617 4.308h2.182c.11-.542.313-1 .594-1.35.438-.547 1.055-.86 1.912-.86a2.18 2.18 0 0 1 1.78.857c.437.55.704 1.358.704 2.338v11.89a.33.33 0 0 0 .33.33l1.415.002a.33.33 0 0 0 .331-.332v-12.553a4.635 4.635 0 0 0-4.63-4.63zm-5.107 4.963a.33.33 0 0 0-.333.33v2.004a4.638 4.638 0 0 0-2.817 3.57.33.33 0 0 0-.003.049l-.034 4.634a.33.33 0 0 0 .007.066l.075.38c.045-.003.09-.006.135-.006.392 0 .765.086 1.1.24a.33.33 0 0 1 .101-.015h6.214a.33.33 0 0 1 .33.33.33.33 0 0 1-.33.331H7.146c.176.197.326.417.438.66h5.007a.33.33 0 0 1 .33.332.33.33 0 0 1-.33.33h-4.8a2.647 2.647 0 0 1-.73 2.314c.745.077 1.601.004 2.512.004 1.17 0 2.25.112 3.124-.112.437-.112.835-.326 1.107-.696.27-.37.403-.871.403-1.51a.33.33 0 0 0 0-.002l-.05-7.26a.33.33 0 0 0-.002-.046 4.638 4.638 0 0 0-2.702-3.539v-2.057a.33.33 0 0 0-.33-.33zm1.465 3.308c1.003 0 1.851.417 2.426 1.084.575.667.884 1.572.884 2.555a.33.33 0 0 1-.33.332H6.634a.33.33 0 0 1-.33-.332c0-.983.31-1.888.884-2.555.575-.667 1.42-1.084 2.423-1.084zm0 .661c-.824 0-1.464.325-1.922.855-.386.449-.542 1.108-.61 1.793h5.068c-.069-.685-.225-1.344-.611-1.793-.457-.53-1.1-.855-1.925-.855zm1.337.94a.33.33 0 0 1 .107.013c.25.073.43.248.537.43.107.181.154.372.152.554a.33.33 0 0 1-.335.327.33.33 0 0 1-.327-.334.476.476 0 0 0-.061-.212c-.04-.068-.083-.11-.151-.13a.33.33 0 0 1-.225-.41.33.33 0 0 1 .303-.237zm-4.314 3.694h5.957a.33.33 0 0 1 .33.33.33.33 0 0 1-.33.332H6.634a.33.33 0 0 1-.33-.332.33.33 0 0 1 .33-.33zm.02 1.324h5.937a.33.33 0 0 1 .33.33.33.33 0 0 1-.33.332H6.653a.33.33 0 0 1-.332-.333.33.33 0 0 1 .332-.33zm-1.478 1.76a1.989 1.989 0 0 0-1.994 1.994c0 1.105.89 1.993 1.994 1.993a1.988 1.988 0 0 0 1.993-1.993 1.988 1.988 0 0 0-1.993-1.993zm10.415 1.564a.33.33 0 0 0-.296.183l-.828 1.637a.33.33 0 0 0 .296.481h4.301a.33.33 0 0 0 .283-.503l-.994-1.637a.33.33 0 0 0-.28-.16z"
 transform="translate(0 -274.422)"/></svg>
